HIERARCHY
ROOT Hips
{
	OFFSET 0.000000 71.427986 0.000000
	CHANNELS 6 Xposition Yposition Zposition Xrotation Yrotation Zrotation
	JOINT Pelvis
	{
		OFFSET 0.000000 0.000000 0.000000
		CHANNELS 3 Xrotation Yrotation Zrotation
		JOINT LeftUpLeg
		{
			OFFSET 6.797100 -2.508499 -1.318700
			CHANNELS 3 Xrotation Yrotation Zrotation
			JOINT LeftLeg
			{
				OFFSET 0.069008 -29.241863 0.690200
				CHANNELS 3 Xrotation Yrotation Zrotation
				JOINT LeftFoot
				{
					OFFSET -0.069008 -29.568123 -0.266800
					CHANNELS 3 Xrotation Yrotation Zrotation
					JOINT LeftToeBase
					{
						OFFSET 3.145500 -8.631000 16.059900
						CHANNELS 3 Xrotation Yrotation Zrotation
						End Site
						{
							OFFSET 0.000000 18.501587 0.000000
						}
					}
				}
			}
			JOINT Left_ShortSleeve
			{
				OFFSET 0.265923 -10.480953 1.153800
				CHANNELS 3 Xrotation Yrotation Zrotation
				End Site
				{
					OFFSET 1.725763 19.823879 0.000000
				}
			}
		}
		JOINT RightUpLeg
		{
			OFFSET -6.797100 -2.508499 -1.318700
			CHANNELS 3 Xrotation Yrotation Zrotation
			JOINT RightLeg
			{
				OFFSET -0.082453 -29.241932 0.688000
				CHANNELS 3 Xrotation Yrotation Zrotation
				JOINT RightFoot
				{
					OFFSET 0.082453 -29.568058 -0.264600
					CHANNELS 3 Xrotation Yrotation Zrotation
					JOINT RightToeBase
					{
						OFFSET -3.115300 -8.682800 16.113400
						CHANNELS 3 Xrotation Yrotation Zrotation
						End Site
						{
							OFFSET 0.000000 18.567114 0.000000
						}
					}
				}
			}
			JOINT Right_ShortSleeve
			{
				OFFSET -0.265923 -10.480953 1.153800
				CHANNELS 3 Xrotation Yrotation Zrotation
				End Site
				{
					OFFSET -1.725766 19.823910 0.000000
				}
			}
		}
	}
	JOINT Spine
	{
		OFFSET 0.000000 13.368103 0.470500
		CHANNELS 3 Xrotation Yrotation Zrotation
		JOINT Spine1
		{
			OFFSET 0.147000 13.837402 0.538800
			CHANNELS 3 Xrotation Yrotation Zrotation
			JOINT Spine2
			{
				OFFSET 0.168000 16.242897 -1.435500
				CHANNELS 3 Xrotation Yrotation Zrotation
				JOINT Neck
				{
					OFFSET 0.217200 18.631500 -1.679100
					CHANNELS 3 Xrotation Yrotation Zrotation
					JOINT Head
					{
						OFFSET 0.000000 6.599396 1.385900
						CHANNELS 3 Xrotation Yrotation Zrotation
						JOINT Hat
						{
							OFFSET -0.532200 27.220596 -10.096100
							CHANNELS 3 Xrotation Yrotation Zrotation
							End Site
							{
								OFFSET 0.000000 22.029861 0.000000
							}
						}
						JOINT HairD
						{
							OFFSET -10.777400 17.437393 -1.325900
							CHANNELS 3 Xrotation Yrotation Zrotation
							JOINT HairD1
							{
								OFFSET -3.290299 -11.051193 1.062200
								CHANNELS 3 Xrotation Yrotation Zrotation
								End Site
								{
									OFFSET 0.000000 11.579437 0.000000
								}
							}
						}
						JOINT HairB
						{
							OFFSET -10.777400 17.437393 1.467900
							CHANNELS 3 Xrotation Yrotation Zrotation
							JOINT HairB1
							{
								OFFSET -1.561200 -12.956299 3.590200
								CHANNELS 3 Xrotation Yrotation Zrotation
								End Site
								{
									OFFSET 0.000000 13.534866 0.000000
								}
							}
						}
						JOINT HairA
						{
							OFFSET 9.713100 17.437393 1.467900
							CHANNELS 3 Xrotation Yrotation Zrotation
							JOINT HairA1
							{
								OFFSET 1.561200 -12.956299 3.590200
								CHANNELS 3 Xrotation Yrotation Zrotation
								End Site
								{
									OFFSET 0.000000 13.534866 0.000000
								}
							}
						}
						JOINT HairC
						{
							OFFSET 9.713100 17.437393 -1.325900
							CHANNELS 3 Xrotation Yrotation Zrotation
							JOINT HairC1
							{
								OFFSET 3.290300 -11.051193 1.062200
								CHANNELS 3 Xrotation Yrotation Zrotation
								End Site
								{
									OFFSET 0.000000 11.579437 0.000000
								}
							}
						}
					}
				}
				JOINT LeftShoulder
				{
					OFFSET 5.101800 15.108002 -2.763700
					CHANNELS 3 Xrotation Yrotation Zrotation
					JOINT LeftArm
					{
						OFFSET 9.825497 2.506317 -1.597400
						CHANNELS 3 Xrotation Yrotation Zrotation
						JOINT LeftForeArm
						{
							OFFSET 21.966244 0.000000 0.000000
							CHANNELS 3 Xrotation Yrotation Zrotation
							JOINT LeftHand
							{
								OFFSET 33.879036 0.000000 0.000000
								CHANNELS 3 Xrotation Yrotation Zrotation
								JOINT LeftHandThumb1
								{
									OFFSET 6.715286 -2.359680 3.363841
									CHANNELS 3 Xrotation Yrotation Zrotation
									JOINT LeftHandThumb2
									{
										OFFSET 2.507072 -1.447464 1.447461
										CHANNELS 3 Xrotation Yrotation Zrotation
										JOINT LeftHandThumb3
										{
											OFFSET 2.898338 -1.673355 1.673357
											CHANNELS 3 Xrotation Yrotation Zrotation
											End Site
											{
												OFFSET -0.295959 3.727692 -0.131651
											}
										}
									}
								}
								JOINT LeftHandIndex1
								{
									OFFSET 14.190811 -0.254547 3.840278
									CHANNELS 3 Xrotation Yrotation Zrotation
									JOINT LeftHandIndex2
									{
										OFFSET 3.551727 0.000000 -0.000000
										CHANNELS 3 Xrotation Yrotation Zrotation
										JOINT LeftHandIndex3
										{
											OFFSET 2.894196 0.000000 0.000000
											CHANNELS 3 Xrotation Yrotation Zrotation
											End Site
											{
												OFFSET -1.000603 2.690872 0.366626
											}
										}
									}
								}
								JOINT LeftHandMiddle1
								{
									OFFSET 13.776489 0.000000 0.000000
									CHANNELS 3 Xrotation Yrotation Zrotation
									JOINT LeftHandMiddle2
									{
										OFFSET 3.438232 0.000000 0.000000
										CHANNELS 3 Xrotation Yrotation Zrotation
										JOINT LeftHandMiddle3
										{
											OFFSET 3.691551 0.000000 0.000000
											CHANNELS 3 Xrotation Yrotation Zrotation
											End Site
											{
												OFFSET -1.082298 3.499527 0.457670
											}
										}
									}
								}
								JOINT LeftHandRing1
								{
									OFFSET 13.966164 -0.268127 -3.067488
									CHANNELS 3 Xrotation Yrotation Zrotation
									JOINT LeftHandRing2
									{
										OFFSET 3.162567 0.000000 0.000000
										CHANNELS 3 Xrotation Yrotation Zrotation
										JOINT LeftHandRing3
										{
											OFFSET 3.324348 0.000000 0.000000
											CHANNELS 3 Xrotation Yrotation Zrotation
											End Site
											{
												OFFSET -0.861900 3.184998 0.405154
											}
										}
									}
								}
								JOINT LeftHandPinky1
								{
									OFFSET 13.131393 -0.168503 -5.746925
									CHANNELS 3 Xrotation Yrotation Zrotation
									JOINT LeftHandPinky2
									{
										OFFSET 2.849182 0.000000 0.000000
										CHANNELS 3 Xrotation Yrotation Zrotation
										JOINT LeftHandPinky3
										{
											OFFSET 2.805038 0.000000 0.000000
											CHANNELS 3 Xrotation Yrotation Zrotation
											End Site
											{
												OFFSET -0.882500 2.642609 0.325652
											}
										}
									}
								}
							}
							JOINT Left_Sleeve
							{
								OFFSET 6.592125 -0.646545 0.805568
								CHANNELS 3 Xrotation Yrotation Zrotation
								End Site
								{
									OFFSET -0.000179 20.275787 -0.000000
								}
							}
						}
					}
				}
				JOINT RightShoulder
				{
					OFFSET -5.731700 15.108002 -2.763700
					CHANNELS 3 Xrotation Yrotation Zrotation
					JOINT RightArm
					{
						OFFSET -9.825497 2.506317 -1.597400
						CHANNELS 3 Xrotation Yrotation Zrotation
						JOINT RightForeArm
						{
							OFFSET -21.966242 0.000000 0.000000
							CHANNELS 3 Xrotation Yrotation Zrotation
							JOINT RightHand
							{
								OFFSET -33.879032 0.000000 0.000000
								CHANNELS 3 Xrotation Yrotation Zrotation
								JOINT RightHandThumb1
								{
									OFFSET -6.715286 -2.359680 3.363841
									CHANNELS 3 Xrotation Yrotation Zrotation
									JOINT RightHandThumb2
									{
										OFFSET -2.507072 -1.447464 1.447461
										CHANNELS 3 Xrotation Yrotation Zrotation
										JOINT RightHandThumb3
										{
											OFFSET -2.898338 -1.673355 1.673357
											CHANNELS 3 Xrotation Yrotation Zrotation
											End Site
											{
												OFFSET 0.295959 3.727692 -0.131651
											}
										}
									}
								}
								JOINT RightHandIndex1
								{
									OFFSET -14.190811 -0.254547 3.840278
									CHANNELS 3 Xrotation Yrotation Zrotation
									JOINT RightHandIndex2
									{
										OFFSET -3.551727 0.000000 -0.000000
										CHANNELS 3 Xrotation Yrotation Zrotation
										JOINT RightHandIndex3
										{
											OFFSET -2.894196 0.000000 0.000000
											CHANNELS 3 Xrotation Yrotation Zrotation
											End Site
											{
												OFFSET 1.000603 2.690872 0.366626
											}
										}
									}
								}
								JOINT RightHandMiddle1
								{
									OFFSET -13.776489 0.000000 0.000000
									CHANNELS 3 Xrotation Yrotation Zrotation
									JOINT RightHandMiddle2
									{
										OFFSET -3.438232 0.000000 0.000000
										CHANNELS 3 Xrotation Yrotation Zrotation
										JOINT RightHandMiddle3
										{
											OFFSET -3.691551 0.000000 0.000000
											CHANNELS 3 Xrotation Yrotation Zrotation
											End Site
											{
												OFFSET 1.082298 3.499527 0.457670
											}
										}
									}
								}
								JOINT RightHandRing1
								{
									OFFSET -13.966164 -0.268127 -3.067488
									CHANNELS 3 Xrotation Yrotation Zrotation
									JOINT RightHandRing2
									{
										OFFSET -3.162567 0.000000 0.000000
										CHANNELS 3 Xrotation Yrotation Zrotation
										JOINT RightHandRing3
										{
											OFFSET -3.324348 0.000000 0.000000
											CHANNELS 3 Xrotation Yrotation Zrotation
											End Site
											{
												OFFSET 0.861900 3.184998 0.405154
											}
										}
									}
								}
								JOINT RightHandPinky1
								{
									OFFSET -13.131393 -0.168503 -5.746925
									CHANNELS 3 Xrotation Yrotation Zrotation
									JOINT RightHandPinky2
									{
										OFFSET -2.849182 0.000000 0.000000
										CHANNELS 3 Xrotation Yrotation Zrotation
										JOINT RightHandPinky3
										{
											OFFSET -2.805038 0.000000 0.000000
											CHANNELS 3 Xrotation Yrotation Zrotation
											End Site
											{
												OFFSET 0.882500 2.642609 0.325652
											}
										}
									}
								}
							}
							JOINT Right_Sleeve
							{
								OFFSET -6.592125 -0.646545 0.805568
								CHANNELS 3 Xrotation Yrotation Zrotation
								End Site
								{
									OFFSET 0.000179 20.275787 -0.000000
								}
							}
						}
					}
				}
				JOINT Bind_Right_JacketString
				{
					OFFSET -3.534800 11.969597 7.200700
					CHANNELS 3 Xrotation Yrotation Zrotation
					JOINT Bind_Right_JacketString1
					{
						OFFSET -0.319900 -6.102600 2.794100
						CHANNELS 3 Xrotation Yrotation Zrotation
						End Site
						{
							OFFSET 0.000000 6.719452 0.000000
						}
					}
				}
				JOINT Bind_Left_JacketString
				{
					OFFSET 2.904800 11.969597 7.200700
					CHANNELS 3 Xrotation Yrotation Zrotation
					JOINT Bind_Left_JacketString1
					{
						OFFSET 0.364800 -5.904503 3.186800
						CHANNELS 3 Xrotation Yrotation Zrotation
						End Site
						{
							OFFSET 0.000000 6.719513 0.000000
						}
					}
				}
				JOINT HairE
				{
					OFFSET 5.915200 17.612701 -11.592200
					CHANNELS 3 Xrotation Yrotation Zrotation
					JOINT HairE1
					{
						OFFSET 0.289200 -7.171898 -1.284500
						CHANNELS 3 Xrotation Yrotation Zrotation
						End Site
						{
							OFFSET 0.000000 7.291756 0.000000
						}
					}
				}
				JOINT HairF
				{
					OFFSET -0.864800 17.612701 -11.592200
					CHANNELS 3 Xrotation Yrotation Zrotation
					JOINT HairF1
					{
						OFFSET 0.000000 -14.087097 -2.127501
						CHANNELS 3 Xrotation Yrotation Zrotation
						End Site
						{
							OFFSET 0.000000 14.246841 0.000000
						}
					}
				}
				JOINT HairG
				{
					OFFSET -8.087700 17.612701 -11.592200
					CHANNELS 3 Xrotation Yrotation Zrotation
					JOINT HairG1
					{
						OFFSET -0.293600 -6.081398 -0.910100
						CHANNELS 3 Xrotation Yrotation Zrotation
						End Site
						{
							OFFSET 0.000000 6.156120 0.000000
						}
					}
				}
			}
		}
	}
	JOINT Pouch
	{
		OFFSET 0.000000 4.394501 10.847300
		CHANNELS 3 Xrotation Yrotation Zrotation
		End Site
		{
			OFFSET 0.000000 21.880577 0.000000
		}
	}
	JOINT Bag
	{
		OFFSET -13.229000 4.813004 -0.593300
		CHANNELS 3 Xrotation Yrotation Zrotation
		End Site
		{
			OFFSET 0.000000 21.880577 0.000000
		}
	}
	JOINT OccupyGuyFacialAnim_Joint
	{
		OFFSET 1.000000 -70.206398 -1.655000
		CHANNELS 3 Xrotation Yrotation Zrotation
		End Site
		{
			OFFSET 0.000000 21.880577 0.000000
		}
	}
}
MOTION
Frames: 4
Frame Time: 0.033333
-1.275182 66.273979 27.097263 -8.422549 -1.653567 8.736107 -0.000000 0.000000 0.000000 -17.389306 15.593559 -11.109596 21.302252 -3.619954 -2.044625 6.683839 0.291311 8.012004 0.000000 0.000000 -0.000000 -0.000002 -0.000002 -0.000000 -15.040362 7.015977 -5.015272 67.562694 -2.787596 -1.117647 -23.868999 -0.328770 1.403439 -0.000001 0.000000 0.000000 0.000002 -0.000000 -0.000001 12.734571 1.130502 1.558798 3.406966 0.204046 -5.566575 3.399077 0.061315 -5.610959 -13.807036 2.107576 -2.962794 -4.841611 0.647070 4.008627 -0.000001 0.000000 -0.000000 -0.000001 0.000000 -0.000000 -0.000001 0.000000 -0.000000 -0.000001 0.000000 -0.000000 -0.000001 0.000000 -0.000000 -0.000001 0.000000 -0.000000 -0.000001 0.000000 -0.000000 -0.000001 0.000000 -0.000000 -0.000001 0.000000 -0.000000 0.188746 -10.642718 -16.076920 -10.998258 -40.032842 -7.050436 0.000003 -4.748470 0.000010 -68.014143 -2.525789 -4.147624 0.633563 13.993877 12.985954 1.207934 -0.209771 -1.050995 0.000001 0.000002 -0.000004 0.174083 1.652093 -18.723184 -0.000000 0.000005 -0.000017 0.000001 0.000000 0.000002 -1.257605 -1.764371 -22.290727 0.017507 0.491472 -4.076147 0.000002 -0.000000 -0.000001 -4.113417 -5.063278 -31.282645 0.032212 0.666511 -5.531774 -0.000000 -0.000001 -0.000001 -7.491521 -4.369143 -46.668070 0.258106 -2.180847 -16.237819 -0.000000 -0.000000 -0.000001 -0.000002 -0.000005 0.000001 0.758631 7.077766 3.351450 -57.815024 56.016891 89.106737 0.000001 9.976500 0.000004 -77.175209 12.907089 6.244080 -1.885662 -3.490435 -7.176371 4.637201 -8.634128 -0.225398 -0.000000 0.000005 0.000002 0.009887 -0.371420 3.049127 0.159402 -1.483144 12.266515 0.000002 -0.000001 0.000000 0.009884 -0.371420 3.049132 0.159392 -1.483156 12.266525 -0.000001 -0.000001 -0.000001 0.009893 -0.371412 3.049117 0.159385 -1.483161 12.266540 -0.000001 -0.000003 -0.000000 0.009892 -0.371412 3.049123 0.159387 -1.483163 12.266538 -0.000004 -0.000000 0.000000 -0.000004 0.000002 -0.000001 -0.000000 -0.000000 -0.000000 -0.000000 -0.000000 -0.000000 -0.000000 -0.000000 -0.000000 -0.000000 -0.000000 -0.000000 -0.000000 -0.000000 -0.000000 -0.000000 -0.000000 -0.000000 -0.000000 -0.000000 -0.000000 -0.000000 -0.000000 -0.000000 -0.000000 -0.000000 -0.000000 -0.000000 -0.000000 -0.000000 -0.000000 0.000000 0.000000 -0.000000 0.000000 0.000000 -0.000000 0.000000 0.000000 
-1.547224 65.715393 27.423695 -9.395106 -1.918761 9.422395 -0.000001 0.000000 -0.000001 -18.993269 17.434958 -10.573473 26.924237 -6.092435 -1.714719 4.637020 0.220572 8.004960 -0.000000 0.000000 -0.000000 -0.000002 0.000000 0.000000 -16.210231 9.942658 -3.908800 71.811052 -4.270885 -1.927920 -23.269275 -0.444543 2.083593 0.000001 -0.000000 0.000000 0.000000 -0.000000 -0.000000 14.049006 1.035896 0.501277 3.460371 0.210566 -5.294294 3.462915 0.067077 -5.316968 -13.960434 2.241063 -2.976402 -5.312576 0.669497 4.230864 -0.000000 -0.000000 -0.000000 -0.000000 -0.000000 -0.000000 -0.000000 -0.000000 -0.000000 -0.000000 -0.000000 -0.000000 -0.000000 -0.000001 -0.000000 -0.000000 -0.000000 -0.000000 -0.000000 -0.000001 -0.000000 -0.000000 -0.000000 -0.000000 -0.000000 -0.000000 -0.000000 0.097840 -10.733692 -17.418289 -11.135437 -40.078597 -6.843978 0.000001 -4.580880 -0.000001 -67.502288 -2.830659 -2.275771 1.142319 14.488768 12.141732 1.207932 -0.209758 -1.051023 -0.000001 0.000002 0.000002 0.084973 1.350001 -17.906492 -0.000007 0.000002 -0.000042 0.000001 0.000000 -0.000002 -1.284260 -2.226875 -20.617787 0.014854 0.452807 -3.754905 0.000001 -0.000000 0.000001 -3.985111 -5.904851 -28.364179 0.026016 0.599242 -4.971996 -0.000001 0.000000 -0.000001 -7.378718 -5.929608 -41.908996 0.226901 -2.291337 -15.287867 -0.000000 -0.000000 0.000001 -0.000001 -0.000002 -0.000001 0.799840 7.591327 3.575637 -60.534041 57.006057 91.720500 -0.000002 7.400993 -0.000006 -75.772193 13.116822 6.632061 -1.867268 -3.536957 -6.876084 4.637208 -8.634124 -0.225397 -0.000002 -0.000003 -0.000002 0.010109 -0.375700 3.084393 0.160853 -1.489822 12.322595 -0.000000 -0.000000 0.000002 0.010110 -0.375699 3.084384 0.160840 -1.489833 12.322612 0.000000 0.000000 0.000001 0.010107 -0.375694 3.084394 0.160851 -1.489840 12.322594 0.000000 -0.000002 0.000001 0.010103 -0.375700 3.084387 0.160852 -1.489837 12.322608 -0.000000 -0.000001 -0.000003 0.000004 0.000001 -0.000002 -0.000000 -0.000000 -0.000000 -0.000000 -0.000000 -0.000000 -0.000000 -0.000000 -0.000000 -0.000000 -0.000000 -0.000000 -0.000000 -0.000000 -0.000000 -0.000000 -0.000000 -0.000000 -0.000000 -0.000000 -0.000000 -0.000000 -0.000000 -0.000000 -0.000000 -0.000000 -0.000000 -0.000000 -0.000000 -0.000000 -0.000001 0.000000 -0.000001 -0.000001 0.000000 -0.000001 -0.000001 0.000000 -0.000001 
-1.773314 65.332069 27.651730 -10.159068 -1.729797 9.620807 0.000001 0.000000 0.000000 -19.961190 18.425400 -9.893628 30.450800 -7.791771 -1.679250 3.527425 0.181051 8.412648 0.000000 0.000000 0.000000 -0.000002 -0.000002 0.000001 -16.565758 11.680576 -2.793145 73.165355 -4.050840 -2.640881 -23.795230 -0.427118 2.004478 -0.000001 -0.000000 -0.000000 0.000002 -0.000000 -0.000000 14.766773 0.966902 0.051392 3.514418 0.209948 -5.206088 3.528759 0.064838 -5.194615 -13.743995 2.164797 -3.213004 -5.672064 0.392433 4.641881 0.000001 0.000001 0.000000 0.000001 0.000001 0.000000 0.000001 0.000001 0.000000 0.000001 0.000001 0.000000 0.000001 0.000001 -0.000000 0.000001 0.000001 0.000000 0.000001 0.000001 -0.000000 0.000001 0.000001 0.000000 0.000001 0.000001 0.000000 0.019924 -10.845385 -18.480873 -11.300339 -40.992934 -7.507978 -0.000003 -4.467284 0.000005 -66.890460 -3.079964 -0.495237 1.484078 14.906714 11.627731 1.207926 -0.209770 -1.051016 0.000001 -0.000002 -0.000002 0.068689 1.268375 -17.266880 -0.000003 0.000003 -0.000014 0.000002 -0.000001 -0.000000 -1.210953 -2.270329 -19.630058 0.013438 0.430824 -3.572450 0.000000 0.000001 0.000001 -3.716485 -5.986916 -26.786023 0.023134 0.565083 -4.687961 0.000000 -0.000001 -0.000000 -6.847404 -6.211743 -39.406968 0.199394 -2.394981 -14.400378 0.000001 0.000001 -0.000001 0.000000 0.000001 -0.000001 0.813688 7.938920 3.858094 -59.671586 57.896693 90.885741 -0.000003 5.810001 0.000012 -74.524085 13.004821 6.657446 -1.859888 -3.555398 -6.756841 4.637201 -8.634124 -0.225399 0.000001 0.000002 -0.000000 0.010876 -0.389554 3.198303 0.165355 -1.510352 12.495049 -0.000001 0.000002 -0.000005 0.010868 -0.389562 3.198317 0.165358 -1.510348 12.495032 -0.000000 0.000001 -0.000002 0.010868 -0.389549 3.198313 0.165357 -1.510357 12.495037 -0.000002 -0.000001 -0.000002 0.010881 -0.389555 3.198303 0.165359 -1.510348 12.495033 0.000003 0.000000 0.000002 -0.000000 0.000000 0.000002 0.000002 -0.000000 0.000000 0.000002 -0.000000 0.000000 0.000002 -0.000000 0.000000 0.000002 -0.000000 0.000000 0.000002 -0.000000 0.000000 0.000002 -0.000000 0.000000 0.000002 -0.000000 0.000000 0.000002 -0.000000 0.000000 0.000002 -0.000000 0.000000 0.000002 -0.000000 0.000000 0.000001 0.000000 0.000000 0.000001 0.000000 0.000000 0.000001 0.000000 0.000000 
-1.965028 65.176826 27.681803 -10.591370 -0.813910 9.216204 -0.000001 -0.000000 -0.000000 -20.525794 18.112683 -9.263091 31.799947 -8.709885 -1.797393 3.329727 0.149650 8.980081 0.000000 0.000000 -0.000000 0.000004 -0.000001 0.000001 -15.968460 11.876242 -1.921001 71.433281 -2.519362 -3.256703 -25.443314 -0.404809 1.696708 0.000001 -0.000001 0.000000 -0.000001 -0.000000 -0.000002 14.757781 0.918560 0.147781 3.579095 0.197275 -5.198604 3.601106 0.055651 -5.161304 -12.781923 1.783749 -3.630698 -6.233440 -0.355672 5.142942 0.000000 -0.000000 -0.000000 0.000000 -0.000000 -0.000000 0.000000 -0.000000 -0.000000 0.000000 -0.000000 -0.000000 0.000000 -0.000000 -0.000000 0.000000 -0.000000 -0.000000 0.000000 -0.000000 -0.000000 0.000000 -0.000000 -0.000000 0.000000 -0.000000 -0.000000 -0.020082 -10.953904 -18.886643 -12.000291 -43.026387 -10.092971 0.000001 -4.429990 0.000002 -66.025758 -3.251129 1.243187 1.563181 15.302624 11.646274 1.207928 -0.209767 -1.051003 -0.000001 -0.000000 -0.000003 0.122825 1.422736 -16.696539 0.000000 -0.000001 0.000003 0.000002 0.000003 -0.000001 -1.069723 -1.941391 -19.291296 0.013062 0.424572 -3.520490 0.000001 0.000001 0.000001 -3.414448 -5.424439 -26.585278 0.023039 0.564104 -4.679661 -0.000001 0.000001 0.000000 -6.184545 -5.381358 -39.286306 0.175152 -2.492233 -13.571032 -0.000000 0.000001 -0.000001 -0.000000 -0.000001 -0.000001 0.794137 8.045470 4.410042 -53.992427 58.635528 85.082000 -0.000005 5.392024 -0.000003 -72.607773 12.504193 6.149350 -1.861096 -3.552383 -6.776452 4.637205 -8.634128 -0.225399 -0.000001 -0.000002 -0.000001 0.012565 -0.418802 3.438615 0.175087 -1.553554 12.858745 -0.000000 -0.000001 0.000000 0.012550 -0.418804 3.438641 0.175099 -1.553551 12.858734 -0.000001 0.000004 -0.000004 0.012562 -0.418796 3.438618 0.175090 -1.553561 12.858744 -0.000001 0.000000 -0.000004 0.012558 -0.418809 3.438623 0.175092 -1.553552 12.858749 -0.000003 -0.000001 0.000002 0.000003 0.000001 -0.000002 0.000001 -0.000000 -0.000000 0.000000 -0.000000 -0.000000 0.000001 -0.000000 -0.000000 0.000001 -0.000000 -0.000000 0.000001 -0.000000 -0.000000 0.000000 -0.000000 -0.000000 0.000001 -0.000000 -0.000000 0.000001 -0.000000 -0.000000 0.000001 -0.000000 -0.000000 0.000000 -0.000000 -0.000000 -0.000001 -0.000000 -0.000000 -0.000001 -0.000000 -0.000000 -0.000001 -0.000000 -0.000000 
